<svg id="visual" viewBox="0 0 960 500" width="960" height="500" xmlns="http://www.w3.org/2000/svg" xmlns:xlink="http://www.w3.org/1999/xlink" version="1.1"><rect x="0" y="0" width="960" height="500" fill="#e09f3e"></rect><path d="M0 293L22.8 304.7C45.7 316.3 91.3 339.7 137 350.3C182.7 361 228.3 359 274 360.2C319.7 361.3 365.3 365.7 411.2 363C457 360.3 503 350.7 548.8 341C594.7 331.3 640.3 321.7 686 321.8C731.7 322 777.3 332 823 335.5C868.7 339 914.3 336 937.2 334.5L960 333L960 501L937.2 501C914.3 501 868.7 501 823 501C777.3 501 731.7 501 686 501C640.3 501 594.7 501 548.8 501C503 501 457 501 411.2 501C365.3 501 319.7 501 274 501C228.3 501 182.7 501 137 501C91.3 501 45.7 501 22.8 501L0 501Z" fill="#231942"></path><path d="M0 361L22.8 356.7C45.7 352.3 91.3 343.7 137 346.3C182.7 349 228.3 363 274 366.2C319.7 369.3 365.3 361.7 411.2 361.3C457 361 503 368 548.8 368.2C594.7 368.3 640.3 361.7 686 364.7C731.7 367.7 777.3 380.3 823 380.5C868.7 380.7 914.3 368.3 937.2 362.2L960 356L960 501L937.2 501C914.3 501 868.7 501 823 501C777.3 501 731.7 501 686 501C640.3 501 594.7 501 548.8 501C503 501 457 501 411.2 501C365.3 501 319.7 501 274 501C228.3 501 182.7 501 137 501C91.3 501 45.7 501 22.8 501L0 501Z" fill="#733b5c"></path><path d="M0 364L22.8 367.5C45.7 371 91.3 378 137 385.2C182.7 392.3 228.3 399.7 274 399.2C319.7 398.7 365.3 390.3 411.2 387C457 383.7 503 385.3 548.8 388.5C594.7 391.7 640.3 396.3 686 395.8C731.7 395.3 777.3 389.7 823 386.3C868.7 383 914.3 382 937.2 381.5L960 381L960 501L937.2 501C914.3 501 868.7 501 823 501C777.3 501 731.7 501 686 501C640.3 501 594.7 501 548.8 501C503 501 457 501 411.2 501C365.3 501 319.7 501 274 501C228.3 501 182.7 501 137 501C91.3 501 45.7 501 22.8 501L0 501Z" fill="#b66c6d"></path><path d="M0 444L22.8 444C45.7 444 91.3 444 137 437.2C182.7 430.3 228.3 416.7 274 415C319.7 413.3 365.3 423.7 411.2 425.5C457 427.3 503 420.7 548.8 418.8C594.7 417 640.3 420 686 424.8C731.7 429.7 777.3 436.3 823 433.7C868.7 431 914.3 419 937.2 413L960 407L960 501L937.2 501C914.3 501 868.7 501 823 501C777.3 501 731.7 501 686 501C640.3 501 594.7 501 548.8 501C503 501 457 501 411.2 501C365.3 501 319.7 501 274 501C228.3 501 182.7 501 137 501C91.3 501 45.7 501 22.8 501L0 501Z" fill="#e5ab83"></path><path d="M0 455L22.8 454.8C45.7 454.7 91.3 454.3 137 453C182.7 451.7 228.3 449.3 274 448.5C319.7 447.7 365.3 448.3 411.2 451.5C457 454.7 503 460.3 548.8 463.8C594.7 467.3 640.3 468.7 686 466.7C731.7 464.7 777.3 459.3 823 455.5C868.7 451.7 914.3 449.3 937.2 448.2L960 447L960 501L937.2 501C914.3 501 868.7 501 823 501C777.3 501 731.7 501 686 501C640.3 501 594.7 501 548.8 501C503 501 457 501 411.2 501C365.3 501 319.7 501 274 501C228.3 501 182.7 501 137 501C91.3 501 45.7 501 22.8 501L0 501Z" fill="#fff3b0"></path></svg>