<svg id="visual" viewBox="0 0 900 600" width="900" height="600" xmlns="http://www.w3.org/2000/svg" xmlns:xlink="http://www.w3.org/1999/xlink" version="1.1"><rect x="0" y="0" width="900" height="600" fill="#e09f3e"></rect><path d="M0 352L21.5 366C43 380 86 408 128.8 420.8C171.7 433.7 214.3 431.3 257.2 432.8C300 434.3 343 439.7 385.8 436.3C428.7 433 471.3 421 514.2 409.3C557 397.7 600 386.3 642.8 386.5C685.7 386.7 728.3 398.3 771.2 402.5C814 406.7 857 403.3 878.5 401.7L900 400L900 601L878.5 601C857 601 814 601 771.2 601C728.3 601 685.7 601 642.8 601C600 601 557 601 514.2 601C471.3 601 428.7 601 385.8 601C343 601 300 601 257.2 601C214.3 601 171.7 601 128.8 601C86 601 43 601 21.5 601L0 601Z" fill="#231942"></path><path d="M0 433L21.5 427.8C43 422.7 86 412.3 128.8 415.5C171.7 418.7 214.3 435.3 257.2 439.2C300 443 343 434 385.8 433.7C428.7 433.3 471.3 441.7 514.2 441.8C557 442 600 434 642.8 437.7C685.7 441.3 728.3 456.7 771.2 456.8C814 457 857 442 878.5 434.5L900 427L900 601L878.5 601C857 601 814 601 771.2 601C728.3 601 685.7 601 642.8 601C600 601 557 601 514.2 601C471.3 601 428.7 601 385.8 601C343 601 300 601 257.2 601C214.3 601 171.7 601 128.8 601C86 601 43 601 21.5 601L0 601Z" fill="#733b5c"></path><path d="M0 438L21.5 442C43 446 86 454 128.8 462.5C171.7 471 214.3 480 257.2 479.5C300 479 343 469 385.8 464.8C428.7 460.7 471.3 462.3 514.2 466.2C557 470 600 476 642.8 475.5C685.7 475 728.3 468 771.2 463.8C814 459.7 857 458.3 878.5 457.7L900 457L900 601L878.5 601C857 601 814 601 771.2 601C728.3 601 685.7 601 642.8 601C600 601 557 601 514.2 601C471.3 601 428.7 601 385.8 601C343 601 300 601 257.2 601C214.3 601 171.7 601 128.8 601C86 601 43 601 21.5 601L0 601Z" fill="#b66c6d"></path><path d="M0 533L21.5 533C43 533 86 533 128.8 524.7C171.7 516.3 214.3 499.7 257.2 497.7C300 495.7 343 508.3 385.8 510.7C428.7 513 471.3 505 514.2 502.7C557 500.3 600 503.7 642.8 509.5C685.7 515.3 728.3 523.7 771.2 520.5C814 517.3 857 502.7 878.5 495.3L900 488L900 601L878.5 601C857 601 814 601 771.2 601C728.3 601 685.7 601 642.8 601C600 601 557 601 514.2 601C471.3 601 428.7 601 385.8 601C343 601 300 601 257.2 601C214.3 601 171.7 601 128.8 601C86 601 43 601 21.5 601L0 601Z" fill="#e5ab83"></path><path d="M0 546L21.5 545.8C43 545.7 86 545.3 128.8 543.7C171.7 542 214.3 539 257.2 538C300 537 343 538 385.8 541.8C428.7 545.7 471.3 552.3 514.2 556.5C557 560.7 600 562.3 642.8 560.2C685.7 558 728.3 552 771.2 547.5C814 543 857 540 878.5 538.5L900 537L900 601L878.5 601C857 601 814 601 771.2 601C728.3 601 685.7 601 642.8 601C600 601 557 601 514.2 601C471.3 601 428.7 601 385.8 601C343 601 300 601 257.2 601C214.3 601 171.7 601 128.8 601C86 601 43 601 21.5 601L0 601Z" fill="#fff3b0"></path></svg>